<svg width="148" height="52" viewBox="0 0 148 52" fill="none" xmlns="http://www.w3.org/2000/svg">
<path d="M4.63473 46.9901L0.65746 32.4447H2.44723L5.48701 44.2913H5.62905L8.72564 32.4447H10.7143L13.8109 44.2913H13.9529L16.9927 32.4447H18.7825L14.8052 46.9901H12.987L9.77678 35.3992H9.66314L6.45291 46.9901H4.63473Z" fill="white"/>
<path d="M24.308 47.2174C23.2569 47.2174 22.3502 46.9854 21.5879 46.5214C20.8303 46.0526 20.2455 45.3992 19.8336 44.5612C19.4264 43.7184 19.2228 42.7382 19.2228 41.6208C19.2228 40.5034 19.4264 39.5186 19.8336 38.6663C20.2455 37.8093 20.8184 37.1417 21.5523 36.6634C22.291 36.1805 23.1527 35.939 24.1376 35.939C24.7058 35.939 25.2668 36.0337 25.8208 36.2231C26.3748 36.4125 26.8791 36.7203 27.3336 37.1464C27.7881 37.5678 28.1504 38.1265 28.4202 38.8225C28.6901 39.5186 28.8251 40.3756 28.8251 41.3936V42.1038H20.416V40.6549H27.1205C27.1205 40.0394 26.9974 39.4901 26.7512 39.0072C26.5097 38.5242 26.1641 38.1431 25.7143 37.8637C25.2692 37.5844 24.7436 37.4447 24.1376 37.4447C23.47 37.4447 22.8923 37.6104 22.4046 37.9418C21.9217 38.2685 21.55 38.6947 21.2896 39.2203C21.0291 39.7458 20.8989 40.3093 20.8989 40.9106V41.8765C20.8989 42.7004 21.041 43.3988 21.3251 43.9717C21.6139 44.5399 22.014 44.9731 22.5254 45.2714C23.0367 45.565 23.6309 45.7117 24.308 45.7117C24.7484 45.7117 25.1461 45.6502 25.5012 45.5271C25.8611 45.3992 26.1712 45.2098 26.4316 44.9589C26.692 44.7032 26.8933 44.386 27.0353 44.0072L28.6546 44.4617C28.4842 45.011 28.1977 45.4939 27.7952 45.9106C27.3928 46.3225 26.8956 46.6445 26.3038 46.8765C25.7119 47.1038 25.0467 47.2174 24.308 47.2174Z" fill="white"/>
<path d="M31.6021 46.9901V32.4447H33.2782V37.814H33.4202C33.5433 37.6246 33.7138 37.3831 33.9316 37.0896C34.1541 36.7913 34.4714 36.5261 34.8833 36.2941C35.3 36.0574 35.8634 35.939 36.5737 35.939C37.4922 35.939 38.3019 36.1686 39.0026 36.6279C39.7034 37.0872 40.2503 37.7382 40.6433 38.5811C41.0362 39.4239 41.2327 40.4182 41.2327 41.564C41.2327 42.7193 41.0362 43.7207 40.6433 44.5683C40.2503 45.4111 39.7058 46.0645 39.0097 46.5285C38.3137 46.9878 37.5112 47.2174 36.6021 47.2174C35.9013 47.2174 35.3402 47.1014 34.9188 46.8694C34.4974 46.6327 34.1731 46.3651 33.9458 46.0668C33.7185 45.7638 33.5433 45.5129 33.4202 45.314H33.2214V46.9901H31.6021ZM33.2498 41.5356C33.2498 42.3595 33.3705 43.0863 33.612 43.716C33.8535 44.341 34.2062 44.8311 34.6702 45.1862C35.1343 45.5365 35.7024 45.7117 36.3748 45.7117C37.0755 45.7117 37.6603 45.5271 38.1291 45.1578C38.6025 44.7837 38.9577 44.2818 39.1944 43.6521C39.4359 43.0176 39.5566 42.3121 39.5566 41.5356C39.5566 40.7685 39.4382 40.0773 39.2015 39.4617C38.9695 38.8415 38.6167 38.3514 38.1433 37.9916C37.6745 37.627 37.085 37.4447 36.3748 37.4447C35.693 37.4447 35.1201 37.6175 34.656 37.9632C34.192 38.3041 33.8416 38.7823 33.6049 39.3978C33.3682 40.0086 33.2498 40.7212 33.2498 41.5356Z" fill="white"/>
<path d="M50.0467 39.9731V41.5356H43.683V39.9731H50.0467Z" fill="white"/>
<path d="M57.7118 46.9901H53.2232V32.4447H57.9107C59.3216 32.4447 60.529 32.7359 61.5328 33.3183C62.5366 33.8959 63.306 34.7269 63.8411 35.8112C64.3761 36.8907 64.6436 38.1833 64.6436 39.689C64.6436 41.2042 64.3737 42.5086 63.834 43.6024C63.2942 44.6914 62.5082 45.5294 61.476 46.1166C60.4438 46.6989 59.1891 46.9901 57.7118 46.9901ZM54.9845 45.4276H57.5982C58.8008 45.4276 59.7975 45.1956 60.5882 44.7316C61.3789 44.2676 61.9684 43.6071 62.3567 42.7501C62.7449 41.8931 62.9391 40.8727 62.9391 39.689C62.9391 38.5148 62.7473 37.5039 62.3638 36.6563C61.9803 35.8041 61.4073 35.1507 60.645 34.6961C59.8827 34.2368 58.9334 34.0072 57.797 34.0072H54.9845V45.4276Z" fill="white"/>
<path d="M71.9447 47.2174C70.8936 47.2174 69.9869 46.9854 69.2246 46.5214C68.467 46.0526 67.8822 45.3992 67.4703 44.5612C67.0631 43.7184 66.8595 42.7382 66.8595 41.6208C66.8595 40.5034 67.0631 39.5186 67.4703 38.6663C67.8822 37.8093 68.4552 37.1417 69.1891 36.6634C69.9277 36.1805 70.7894 35.939 71.7743 35.939C72.3425 35.939 72.9036 36.0337 73.4575 36.2231C74.0115 36.4125 74.5158 36.7203 74.9703 37.1464C75.4249 37.5678 75.7871 38.1265 76.057 38.8225C76.3268 39.5186 76.4618 40.3756 76.4618 41.3936V42.1038H68.0527V40.6549H74.7572C74.7572 40.0394 74.6341 39.4901 74.3879 39.0072C74.1465 38.5242 73.8008 38.1431 73.351 37.8637C72.9059 37.5844 72.3804 37.4447 71.7743 37.4447C71.1067 37.4447 70.529 37.6104 70.0413 37.9418C69.5584 38.2685 69.1867 38.6947 68.9263 39.2203C68.6659 39.7458 68.5357 40.3093 68.5357 40.9106V41.8765C68.5357 42.7004 68.6777 43.3988 68.9618 43.9717C69.2506 44.5399 69.6507 44.9731 70.1621 45.2714C70.6734 45.565 71.2677 45.7117 71.9447 45.7117C72.3851 45.7117 72.7828 45.6502 73.1379 45.5271C73.4978 45.3992 73.8079 45.2098 74.0683 44.9589C74.3287 44.7032 74.53 44.386 74.672 44.0072L76.2913 44.4617C76.1209 45.011 75.8344 45.4939 75.432 45.9106C75.0295 46.3225 74.5323 46.6445 73.9405 46.8765C73.3486 47.1038 72.6834 47.2174 71.9447 47.2174Z" fill="white"/>
<path d="M87.5999 36.0811L83.5658 46.9901H81.8613L77.8272 36.0811H79.6454L82.6567 44.7742H82.7704L85.7817 36.0811H87.5999Z" fill="white"/>
<path d="M93.9955 47.2174C92.9444 47.2174 92.0377 46.9854 91.2754 46.5214C90.5178 46.0526 89.933 45.3992 89.5211 44.5612C89.1139 43.7184 88.9103 42.7382 88.9103 41.6208C88.9103 40.5034 89.1139 39.5186 89.5211 38.6663C89.933 37.8093 90.5059 37.1417 91.2398 36.6634C91.9785 36.1805 92.8402 35.939 93.8251 35.939C94.3933 35.939 94.9543 36.0337 95.5083 36.2231C96.0623 36.4125 96.5665 36.7203 97.0211 37.1464C97.4756 37.5678 97.8379 38.1265 98.1077 38.8225C98.3776 39.5186 98.5126 40.3756 98.5126 41.3936V42.1038H90.1035V40.6549H96.808C96.808 40.0394 96.6849 39.4901 96.4387 39.0072C96.1972 38.5242 95.8516 38.1431 95.4018 37.8637C94.9567 37.5844 94.4311 37.4447 93.8251 37.4447C93.1575 37.4447 92.5798 37.6104 92.0921 37.9418C91.6092 38.2685 91.2375 38.6947 90.9771 39.2203C90.7166 39.7458 90.5864 40.3093 90.5864 40.9106V41.8765C90.5864 42.7004 90.7285 43.3988 91.0126 43.9717C91.3014 44.5399 91.7015 44.9731 92.2129 45.2714C92.7242 45.565 93.3184 45.7117 93.9955 45.7117C94.4359 45.7117 94.8336 45.6502 95.1887 45.5271C95.5486 45.3992 95.8587 45.2098 96.1191 44.9589C96.3795 44.7032 96.5808 44.386 96.7228 44.0072L98.3421 44.4617C98.1717 45.011 97.8852 45.4939 97.4827 45.9106C97.0803 46.3225 96.5831 46.6445 95.9913 46.8765C95.3994 47.1038 94.7342 47.2174 93.9955 47.2174Z" fill="white"/>
<path d="M102.738 32.4447V46.9901H101.062V32.4447H102.738Z" fill="white"/>
<path d="M110.24 47.2174C109.255 47.2174 108.391 46.983 107.648 46.5143C106.909 46.0455 106.332 45.3898 105.915 44.547C105.503 43.7042 105.297 42.7193 105.297 41.5924C105.297 40.4561 105.503 39.4641 105.915 38.6166C106.332 37.769 106.909 37.1109 107.648 36.6421C108.391 36.1734 109.255 35.939 110.24 35.939C111.225 35.939 112.087 36.1734 112.825 36.6421C113.569 37.1109 114.146 37.769 114.558 38.6166C114.975 39.4641 115.183 40.4561 115.183 41.5924C115.183 42.7193 114.975 43.7042 114.558 44.547C114.146 45.3898 113.569 46.0455 112.825 46.5143C112.087 46.983 111.225 47.2174 110.24 47.2174ZM110.24 45.7117C110.988 45.7117 111.604 45.52 112.087 45.1364C112.57 44.7529 112.927 44.2487 113.159 43.6237C113.391 42.9987 113.507 42.3216 113.507 41.5924C113.507 40.8632 113.391 40.1838 113.159 39.5541C112.927 38.9243 112.57 38.4153 112.087 38.0271C111.604 37.6388 110.988 37.4447 110.24 37.4447C109.492 37.4447 108.877 37.6388 108.394 38.0271C107.911 38.4153 107.553 38.9243 107.321 39.5541C107.089 40.1838 106.973 40.8632 106.973 41.5924C106.973 42.3216 107.089 42.9987 107.321 43.6237C107.553 44.2487 107.911 44.7529 108.394 45.1364C108.877 45.52 109.492 45.7117 110.24 45.7117Z" fill="white"/>
<path d="M117.742 51.0811V36.0811H119.361V37.814H119.56C119.683 37.6246 119.854 37.3831 120.072 37.0896C120.294 36.7913 120.611 36.5261 121.023 36.2941C121.44 36.0574 122.003 35.939 122.714 35.939C123.632 35.939 124.442 36.1686 125.143 36.6279C125.843 37.0872 126.39 37.7382 126.783 38.5811C127.176 39.4239 127.373 40.4182 127.373 41.564C127.373 42.7193 127.176 43.7207 126.783 44.5683C126.39 45.4111 125.846 46.0645 125.15 46.5285C124.454 46.9878 123.651 47.2174 122.742 47.2174C122.041 47.2174 121.48 47.1014 121.059 46.8694C120.637 46.6327 120.313 46.3651 120.086 46.0668C119.858 45.7638 119.683 45.5129 119.56 45.314H119.418V51.0811H117.742ZM119.39 41.5356C119.39 42.3595 119.51 43.0863 119.752 43.716C119.993 44.341 120.346 44.8311 120.81 45.1862C121.274 45.5365 121.842 45.7117 122.515 45.7117C123.215 45.7117 123.8 45.5271 124.269 45.1578C124.742 44.7837 125.098 44.2818 125.334 43.6521C125.576 43.0176 125.697 42.3121 125.697 41.5356C125.697 40.7685 125.578 40.0773 125.341 39.4617C125.109 38.8415 124.757 38.3514 124.283 37.9916C123.814 37.627 123.225 37.4447 122.515 37.4447C121.833 37.4447 121.26 37.6175 120.796 37.9632C120.332 38.3041 119.982 38.7823 119.745 39.3978C119.508 40.0086 119.39 40.7212 119.39 41.5356Z" fill="white"/>
<path d="M134.503 47.2174C133.452 47.2174 132.545 46.9854 131.783 46.5214C131.026 46.0526 130.441 45.3992 130.029 44.5612C129.622 43.7184 129.418 42.7382 129.418 41.6208C129.418 40.5034 129.622 39.5186 130.029 38.6663C130.441 37.8093 131.014 37.1417 131.748 36.6634C132.486 36.1805 133.348 35.939 134.333 35.939C134.901 35.939 135.462 36.0337 136.016 36.2231C136.57 36.4125 137.074 36.7203 137.529 37.1464C137.983 37.5678 138.346 38.1265 138.616 38.8225C138.885 39.5186 139.02 40.3756 139.02 41.3936V42.1038H130.611V40.6549H137.316C137.316 40.0394 137.193 39.4901 136.947 39.0072C136.705 38.5242 136.359 38.1431 135.91 37.8637C135.465 37.5844 134.939 37.4447 134.333 37.4447C133.665 37.4447 133.088 37.6104 132.6 37.9418C132.117 38.2685 131.745 38.6947 131.485 39.2203C131.224 39.7458 131.094 40.3093 131.094 40.9106V41.8765C131.094 42.7004 131.236 43.3988 131.52 43.9717C131.809 44.5399 132.209 44.9731 132.721 45.2714C133.232 45.565 133.826 45.7117 134.503 45.7117C134.944 45.7117 135.341 45.6502 135.697 45.5271C136.056 45.3992 136.367 45.2098 136.627 44.9589C136.887 44.7032 137.089 44.386 137.231 44.0072L138.85 44.4617C138.679 45.011 138.393 45.4939 137.991 45.9106C137.588 46.3225 137.091 46.6445 136.499 46.8765C135.907 47.1038 135.242 47.2174 134.503 47.2174Z" fill="white"/>
<path d="M141.57 46.9901V36.0811H143.189V37.7288H143.303C143.502 37.189 143.862 36.751 144.383 36.4149C144.903 36.0787 145.491 35.9106 146.144 35.9106C146.267 35.9106 146.421 35.913 146.606 35.9177C146.79 35.9224 146.93 35.9295 147.025 35.939V37.6436C146.968 37.6293 146.838 37.608 146.634 37.5796C146.435 37.5465 146.224 37.5299 146.002 37.5299C145.472 37.5299 144.998 37.6412 144.581 37.8637C144.17 38.0815 143.843 38.3846 143.601 38.7728C143.365 39.1563 143.246 39.5943 143.246 40.0867V46.9901H141.57Z" fill="white"/>
<path d="M0.41333 23.3926V0.847137H8.03123C9.79259 0.847137 11.2384 1.14804 12.3686 1.74984C13.4988 2.3443 14.3354 3.1626 14.8785 4.20474C15.4216 5.24688 15.6932 6.43213 15.6932 7.76049C15.6932 9.08885 15.4216 10.2668 14.8785 11.2942C14.3354 12.3217 13.5025 13.129 12.3796 13.7161C11.2567 14.2959 9.82195 14.5858 8.07526 14.5858H1.91049V12.1199H7.98719C9.19079 12.1199 10.1595 11.9437 10.8934 11.5915C11.6347 11.2392 12.1704 10.7401 12.5007 10.0943C12.8383 9.44112 13.0071 8.66319 13.0071 7.76049C13.0071 6.85779 12.8383 6.06885 12.5007 5.39366C12.1631 4.71847 11.6237 4.1974 10.8824 3.83045C10.1412 3.45616 9.16144 3.26901 7.94316 3.26901H3.14344V23.3926H0.41333ZM11.0255 13.2648L16.5738 23.3926H13.4034L7.94316 13.2648H11.0255Z" fill="url(#paint0_linear_70_2)"/>
<path d="M42.7703 0.847137V23.3926H40.1282L27.8427 5.69089H27.6225V23.3926H24.8924V0.847137H27.5345L39.864 18.5929H40.0842V0.847137H42.7703Z" fill="url(#paint1_linear_70_2)"/>
<path d="M59.8406 23.3926H52.8833V0.847137H60.1489C62.3359 0.847137 64.2074 1.29849 65.7632 2.20119C67.3191 3.09655 68.5117 4.38454 69.341 6.06518C70.1703 7.73847 70.585 9.74202 70.585 12.0758C70.585 14.4243 70.1666 16.4462 69.33 18.1415C68.4933 19.8295 67.2751 21.1285 65.6752 22.0385C64.0753 22.9412 62.1304 23.3926 59.8406 23.3926ZM55.6134 20.9707H59.6645C61.5286 20.9707 63.0735 20.6111 64.2991 19.8919C65.5247 19.1727 66.4384 18.1489 67.0402 16.8205C67.642 15.4921 67.9429 13.9106 67.9429 12.0758C67.9429 10.2558 67.6457 8.68888 67.0512 7.37519C66.4568 6.05417 65.5687 5.04138 64.3872 4.33684C63.2056 3.62495 61.7341 3.26901 59.9727 3.26901H55.6134V20.9707Z" fill="url(#paint2_linear_70_2)"/>
<path d="M77.6431 3.26901V0.847137H94.5522V3.26901H87.4627V23.3926H84.7326V3.26901H77.6431Z" fill="url(#paint3_linear_70_2)"/>
<defs>
<linearGradient id="paint0_linear_70_2" x1="108.181" y1="3.99506" x2="-0.762884" y2="29.1793" gradientUnits="userSpaceOnUse">
<stop stop-color="#FF034F"/>
<stop offset="1" stop-color="#7B0DFF"/>
</linearGradient>
<linearGradient id="paint1_linear_70_2" x1="108.181" y1="3.99506" x2="-0.762884" y2="29.1793" gradientUnits="userSpaceOnUse">
<stop stop-color="#FF034F"/>
<stop offset="1" stop-color="#7B0DFF"/>
</linearGradient>
<linearGradient id="paint2_linear_70_2" x1="108.181" y1="3.99506" x2="-0.762884" y2="29.1793" gradientUnits="userSpaceOnUse">
<stop stop-color="#FF034F"/>
<stop offset="1" stop-color="#7B0DFF"/>
</linearGradient>
<linearGradient id="paint3_linear_70_2" x1="108.181" y1="3.99506" x2="-0.762884" y2="29.1793" gradientUnits="userSpaceOnUse">
<stop stop-color="#FF034F"/>
<stop offset="1" stop-color="#7B0DFF"/>
</linearGradient>
</defs>
</svg>
