<svg version="1.2" xmlns="http://www.w3.org/2000/svg" viewBox="0 0 76 81" width="76" height="81">
	<title>Neues Projekt</title>
	<style>
		.s0 { fill: #ffffff } 
	</style>
	<path id="Farbfüllung 1" fill-rule="evenodd" class="s0" d="m37.8 0c0.1 0 8.7 3 37.9 13.4l-0.2 2.1c-0.1 1.1-0.6 5.3-1.1 9.3-0.4 4.1-1.2 10.7-1.7 14.7-0.4 4-1.2 11-1.8 15.6-0.7 5.9-1.1 8.5-1.4 8.6-0.3 0.2-7.4 4.1-15.8 8.8-8.5 4.7-15.6 8.5-15.8 8.5-0.2 0-7.5-3.9-16.2-8.7-8.6-4.8-15.8-8.7-15.8-8.8-0.1 0-0.9-7.2-2-16-1-8.8-2.3-20.1-2.9-25-0.5-5-1-9.1-0.9-9.1 0 0 8.5-3 18.8-6.7 10.3-3.7 18.8-6.7 18.9-6.7zm-0.6 10.5c-0.1 0.5-4.8 10.9-10.3 23.2-5.5 12.3-10.5 23.6-11.3 25.2l-1.3 2.9c6.2 0.1 8.2 0.1 8.4 0 0.2 0 1.4-2.7 2.7-5.9l2.4-5.9h20.1l4.8 11.9h8.6c-1.3-3-6.5-14.8-12.3-28.1-5.9-13.4-10.8-24.3-11-24.3-0.2 0-0.6 0.5-0.8 1zm1.2 16.8c0.3 0.6 1.8 4.2 3.4 8 1.6 3.8 2.8 7.1 2.8 7.2 0 0.3-2.5 0.4-6.8 0.4-3.7 0-6.8-0.1-6.7-0.2 0-0.1 0.6-1.5 1.2-3.1 0.6-1.7 2.1-5.2 3.2-7.9 1.1-2.8 2.2-5.1 2.3-5.3 0.1-0.1 0.4 0.2 0.6 0.9z"/>
</svg>