<svg version="1.2" xmlns="http://www.w3.org/2000/svg" viewBox="0 0 67 75" width="67" height="75">
	<title>css</title>
	<style>
		.s0 { fill: #ffffff } 
	</style>
	<path id="Ebene 2" fill-rule="evenodd" class="s0" d="m0 0h66l-0.1 0.6c0 0.4-1.3 15.5-2.9 33.7-1.6 18.1-3 33-3.1 33.1-0.1 0.1-6.2 1.8-27 7.6l-13.4-3.7c-7.3-2.1-13.4-3.8-13.4-3.8 0 0-1.4-14.6-3-32.5-1.6-17.8-2.9-33-3-33.7zm12.4 15.3c0.1 0.7 0.3 2.6 0.4 4.1l0.3 2.6 31.6 0.2c-0.2 0.9-0.3 2.8-0.5 4.7l-0.3 3.5h-30c0 1.2 0.1 3 0.3 4.7 0.2 1.8 0.3 3.4 0.3 3.6 0.1 0.2 3.1 0.2 14.3 0.2 12.6 0 14.3 0.1 14.3 0.4 0 0.2-0.2 2.6-0.4 5.3-0.3 2.7-0.5 5-0.5 5 0 0-2 0.5-4.4 1.2-2.4 0.6-4.6 1.1-4.9 1.1-0.3 0-2.5-0.5-4.8-1.2l-4.3-1.1c-0.4-4-0.5-5.5-0.5-5.9v-0.7h-8.3c0 0.9 0.3 3.8 0.6 7 0.3 3.2 0.6 5.9 0.7 6 0.1 0 3.9 1.1 8.5 2.4l8.3 2.3c13.1-3.7 16.9-4.8 16.9-4.8 0 0 0.8-9.3 1.8-20.7 1-11.3 1.8-20.7 1.8-20.9 0-0.4-1.1-0.4-20.6-0.4h-20.7z"/>
</svg>