<svg width="65" height="83" viewBox="0 0 65 83" fill="none" xmlns="http://www.w3.org/2000/svg">
<path d="M29.2581 0H42.8299V62.8206C35.8677 64.1434 30.756 64.6719 25.2048 64.6719C8.63654 64.6713 0 57.1818 0 42.8163C0 28.98 9.16566 19.9913 23.3535 19.9913C25.5569 19.9913 27.2311 20.1677 29.2581 20.6962V0ZM29.2581 31.6211C27.6721 31.0926 26.3499 30.9169 24.6756 30.9169C17.8022 30.9169 13.8357 35.1466 13.8357 42.5492C13.8357 49.776 17.6258 53.7412 24.5881 53.7412C26.0853 53.7412 27.3193 53.653 29.2581 53.3897V31.6211Z" fill="white"/>
<path d="M64.4191 20.9582V52.4197C64.4191 63.2597 63.6254 68.4588 61.2463 72.9532C59.0429 77.2724 56.1346 80.0036 50.1424 83L37.54 77.0078C43.5329 74.1871 46.4405 71.7211 48.2911 67.9297C50.23 64.0527 50.8479 59.5584 50.8479 47.749V20.9582H64.4191ZM50.8473 0.0720215H64.4191V13.9966H50.8473V0.0720215Z" fill="white"/>
</svg>
