<svg width="54" height="80" viewBox="0 0 54 80" fill="none" xmlns="http://www.w3.org/2000/svg">
<path d="M13.2695 79.6172C20.6141 79.6172 26.5391 73.6922 26.5391 66.3477V53.0781H13.2695C5.925 53.0781 0 59.0031 0 66.3477C0 73.6922 5.925 79.6172 13.2695 79.6172Z" fill="white"/>
<path d="M0 39.8086C0 32.4641 5.925 26.5391 13.2695 26.5391H26.5391V53.0781H13.2695C5.925 53.0781 0 47.1531 0 39.8086Z" fill="white"/>
<path d="M0 13.2695C0 5.925 5.925 0 13.2695 0H26.5391V26.5391H13.2695C5.925 26.5391 0 20.6141 0 13.2695Z" fill="white"/>
<path d="M26.5391 0H39.8086C47.1531 0 53.0781 5.925 53.0781 13.2695C53.0781 20.6141 47.1531 26.5391 39.8086 26.5391H26.5391V0Z" fill="white"/>
<path d="M53.0781 39.8086C53.0781 47.1531 47.1531 53.0781 39.8086 53.0781C32.4641 53.0781 26.5391 47.1531 26.5391 39.8086C26.5391 32.4641 32.4641 26.5391 39.8086 26.5391C47.1531 26.5391 53.0781 32.4641 53.0781 39.8086Z" fill="white"/>
</svg>
