<svg width="84" height="84" viewBox="0 0 84 84" fill="none" xmlns="http://www.w3.org/2000/svg">
<path d="M82.2469 38.1799L45.6465 1.5808C43.5401 -0.526934 40.1215 -0.526934 38.0117 1.5808L30.4122 9.18166L40.0531 18.8225C42.2943 18.0662 44.8629 18.5735 46.6485 20.3592C48.4435 22.1561 48.9469 24.7466 48.1719 26.9951L57.4635 36.2874C59.7113 35.5124 62.3058 36.0131 64.1001 37.8114C66.6103 40.3196 66.6103 44.3856 64.1001 46.8951C63.5036 47.4919 62.7953 47.9653 62.0158 48.2883C61.2363 48.6113 60.4007 48.7776 59.5569 48.7776C58.7131 48.7776 57.8776 48.6113 57.098 48.2883C56.3185 47.9653 55.6102 47.4919 55.0137 46.8951C54.1175 45.9983 53.5066 44.8565 53.2578 43.6133C53.0091 42.3701 53.1337 41.0811 53.6159 39.9085L44.9512 31.2438L44.9499 54.0484C45.5785 54.358 46.1525 54.768 46.6492 55.2623C49.158 57.7704 49.158 61.8352 46.6492 64.3487C44.1397 66.8568 40.0723 66.8568 37.5655 64.3487C35.0567 61.8358 35.0567 57.7711 37.5655 55.2623C38.1666 54.6603 38.8815 54.1839 39.6686 53.8611V30.8454C38.8808 30.5234 38.1657 30.0468 37.5655 29.4435C35.6649 27.5443 35.2074 24.7553 36.1822 22.4204L26.6775 12.9157L1.58127 38.0106C0.568782 39.0234 0 40.3969 0 41.829C0 43.2611 0.568782 44.6345 1.58127 45.6473L38.1824 82.2465C40.2901 84.3542 43.7074 84.3542 45.8185 82.2465L82.2476 45.8173C83.2599 44.8042 83.8284 43.4306 83.8283 41.9985C83.8282 40.5663 83.2594 39.1929 82.2469 38.1799Z" fill="white"/>
</svg>
