<svg version="1.2" xmlns="http://www.w3.org/2000/svg" viewBox="0 0 67 76" width="67" height="76">
	<title>html</title>
	<style>
		.s0 { fill: #ffffff } 
	</style>
	<path id="Ebene 2" fill-rule="evenodd" class="s0" d="m0 0h67l-0.1 1.1c-0.1 0.5-1.4 15.9-3.1 34.1-1.6 18.2-2.9 33.1-2.9 33.1 0 0-6.2 1.8-27.4 7.7l-13.7-3.8c-7.5-2.1-13.7-3.8-13.7-3.9 0 0-1.3-14.9-3-33.1-1.6-18.2-2.9-33.6-3-34.1zm12.5 14.2c0 0.2 0.5 5.4 1 11.6 0.6 6.1 1.1 11.7 1.2 12.3l0.1 1.2c26 0 29 0.1 29 0.3 0 0.1-0.2 2.4-0.4 5-0.3 2.5-0.5 4.9-0.5 5.1 0 0.4-0.6 0.6-4.7 1.7l-4.7 1.3c-8.1-2.2-9.4-2.6-9.4-2.9 0-0.2-0.1-1.6-0.2-3.2l-0.3-2.9-8.4-0.1c0 0.7 0.3 3.7 0.6 7 0.3 3.3 0.6 6 0.6 6.1 0 0 3.9 1.1 8.6 2.4l8.5 2.3c13.3-3.6 17.1-4.7 17.1-4.7 0.1-0.1 0.5-5.4 1.1-11.8 0.6-6.5 1.1-12.3 1.2-12.9l0.2-1.2h-30.6c-0.5-4.8-0.7-6.7-0.8-7.3l-0.1-1.2 32.1-0.1c0.6-6.2 0.7-8.1 0.7-8.2-0.1-0.1-9.5-0.2-21-0.2-19.7 0-20.9 0-20.9 0.4z"/>
</svg>