<svg width="82" height="82" viewBox="0 0 82 82" fill="none" xmlns="http://www.w3.org/2000/svg">
<g clip-path="url(#clip0_52_336)">
<path fill-rule="evenodd" clip-rule="evenodd" d="M30.7211 44.2031H40.5681C38.873 38.4375 37.2035 33.1075 35.561 27.6904C33.9671 33.1267 32.3502 38.4375 30.7211 44.2031ZM79.5091 0.640625H1.84041C0.440001 0.640625 0.640517 0.945563 0.640517 2.29664V80.0647C0.640517 81.4145 0.440001 81.3594 1.74175 81.3594H79.6078C80.9089 81.3594 81.3593 81.4145 81.3593 80.064V2.3953C81.3593 0.945563 80.9095 0.640625 79.5091 0.640625ZM49.5189 61.5C48.4702 61.5 47.4177 61.4148 46.3741 61.4898C45.6214 61.5461 45.3696 61.2297 45.1691 60.5762C44.1992 57.4173 43.1684 54.2597 42.1979 51.1014C42.0025 50.4659 41.7232 50.234 41.0345 50.2423C37.4963 50.2833 33.9562 50.2795 30.4174 50.2378C29.6724 50.2288 29.3296 50.4274 29.1169 51.1667C28.2162 54.3083 27.2309 57.4243 26.3206 60.5628C26.1233 61.2431 25.8235 61.4808 25.1009 61.4622C22.9753 61.409 20.8465 61.4417 18.5191 61.4417C19.1334 59.491 19.6908 57.687 20.2673 55.8907C23.7998 44.8719 27.3443 33.8532 30.8511 22.8274C31.0958 22.0599 31.436 21.8235 32.224 21.8408C34.7134 21.8959 37.2048 21.8549 39.6956 21.8408C40.1613 21.8376 40.4791 21.8652 40.6495 22.3943C44.8167 35.2811 48.9987 48.2474 53.1769 61.1329C53.1948 61.1912 53.1833 61.5 53.1929 61.5H49.5189ZM62.7811 61.5H55.0936V32.6719H62.7811V61.5ZM58.7132 28.7826C56.3653 28.7794 54.6843 27.1631 54.6683 24.894C54.6529 22.6314 56.4024 20.9484 58.7721 20.9459C61.1604 20.9433 62.8433 22.5711 62.8619 24.8992C62.8785 27.1702 61.1533 28.7865 58.7132 28.7826Z" fill="white"/>
</g>
<defs>
<clipPath id="clip0_52_336">
<rect width="82" height="82" fill="white"/>
</clipPath>
</defs>
</svg>
