<svg version="1.2" xmlns="http://www.w3.org/2000/svg" viewBox="0 0 82 82" width="82" height="82">
	<title>javascript</title>
	<style>
		.s0 { fill: #ffffff } 
	</style>
	<path id="Ebene 3" fill-rule="evenodd" class="s0" d="m0.9 0.9q0 0 0 0 0 0 0 0zm0 0c0.1 0 80.2 0 80.2 0 0 0 0 80.2 0 80.2h-80.2l-0.1-39.7c0-21.9 0.1-40.5 0.1-40.5zm56.2 37.2c-1 0.4-2.4 1.3-3.2 2.1-0.7 0.7-1.7 2-2.1 2.8-0.4 0.8-0.8 2.3-0.9 3.3-0.1 1 0 2.6 0.2 3.6 0.3 1 0.9 2.5 1.4 3.3 0.6 0.9 1.7 2 2.5 2.6 0.8 0.6 3.2 1.9 5.4 2.9 2.2 1 4.6 2.4 5.4 3 1.1 0.9 1.3 1.3 1.3 2.5 0 1.1-0.2 1.7-0.9 2.4-0.5 0.5-1.6 1.1-2.4 1.3-0.9 0.2-2.2 0.3-2.9 0.2-0.8-0.2-1.8-0.5-2.4-0.7-0.5-0.3-1.6-1.3-2.4-2.2l-1.5-1.6c-4.6 2.6-6 3.5-6 3.6 0 0.2 0.7 1.1 1.5 2.1 0.8 1 2 2.2 2.8 2.7 0.7 0.5 2.2 1.3 3.3 1.7 1.2 0.4 3.3 0.8 5.1 0.9 2.5 0.2 3.6 0.1 5.6-0.5 1.9-0.6 3.1-1.2 4.4-2.3 0.9-0.9 2.1-2.2 2.5-3 0.4-0.8 0.8-2.5 0.9-3.7 0.1-1.4-0.1-2.9-0.4-4.1-0.4-1.1-1.2-2.7-1.8-3.5-0.7-0.7-1.9-1.9-2.8-2.5-0.9-0.6-3.5-1.9-5.7-2.8-2.2-1-4.3-2.2-4.8-2.7-0.5-0.6-0.8-1.3-0.8-2.4 0-1 0.2-1.8 0.6-2.2 0.4-0.4 1.4-0.8 2.3-0.9 1.3-0.2 1.9 0 3 0.6 0.8 0.4 1.5 1.1 1.7 1.5 0.2 0.4 0.6 0.7 0.8 0.7 0.2 0 1.5-0.8 3-1.8l2.8-1.8c-1.7-2.3-3-3.4-3.9-4-1-0.6-2.3-1.3-3-1.5-0.7-0.2-2.5-0.3-4-0.3q-2.7 0-4.6 0.7zm-20.3 28c-1.7 1.5-2.4 1.7-3.6 1.7-0.9 0-2-0.1-2.4-0.3-0.4-0.2-1.1-1-1.7-1.8l-1-1.4c-4 2.3-5.4 3.2-5.7 3.4-0.4 0.4-0.3 0.7 0.3 1.7 0.5 0.6 1.4 1.7 2.2 2.4 0.8 0.7 2.1 1.6 3 2 1.3 0.6 2.5 0.7 5.3 0.7 3.2 0.1 3.9-0.1 5.6-0.9 1.1-0.5 2.5-1.6 3.2-2.4 0.6-0.7 1.5-2.1 1.8-3 0.5-1.4 0.6-3.6 0.7-16l0.1-14.5h-7.6z"/>
</svg>