<svg width="82" height="82" viewBox="0 0 82 82" fill="none" xmlns="http://www.w3.org/2000/svg">
<path fill-rule="evenodd" clip-rule="evenodd" d="M31.933 26.3369C29.5454 25.7371 27.1546 25.9297 24.6315 26.3227C24.6315 30.7353 24.6225 35.0292 24.6555 39.3238C24.6568 39.5437 24.9869 39.9262 25.2009 39.9554C27.9522 40.327 30.6886 40.3568 33.2616 39.1027C35.9234 37.8059 37.2793 35.0941 36.9279 31.9103C36.6088 29.0111 34.8924 27.0807 31.933 26.3369ZM81.7031 40.8276V1.48168C81.7031 0.122555 81.718 0 80.3985 0H1.60748C0.324219 0 0 0.123203 0 1.41748V80.2085C0 81.517 0.163406 81.519 1.4324 81.519C27.7298 81.5196 54.1056 81.5131 80.403 81.543C81.423 81.5443 81.6966 81.2726 81.694 80.2727C81.659 67.1243 81.7031 53.9746 81.7031 40.8276ZM35.8923 44.6144C32.2889 45.8996 28.5312 45.9716 24.6406 45.6701V60.3047H17.5078V59.3956C17.5078 47.1434 17.4514 34.8924 17.417 22.6408C17.4131 21.6234 17.5746 21.1319 18.721 21.0152C24.1238 20.4627 29.4961 19.8415 34.8684 21.1015C40.6434 22.4547 43.9731 26.2727 44.226 31.5478C44.5392 38.0801 41.6686 42.5544 35.8923 44.6144ZM64.6246 52.8846C64.3496 56.6267 62.2396 59.0837 58.7789 60.2716C54.1478 61.8616 49.5419 61.4926 45.0158 59.6939C44.2747 59.3988 44.1314 59.0253 44.3758 58.2699C44.8213 56.8913 45.1475 55.4738 45.4911 54.1938C47.4047 54.7554 49.2242 55.4563 51.1092 55.7877C52.4404 56.0218 53.8793 55.8843 55.2326 55.6723C56.4458 55.4816 57.3186 54.6581 57.5177 53.356C57.72 52.0326 57.3212 50.8861 56.1527 50.1819C55.2242 49.623 54.2009 49.2229 53.2199 48.7541C51.6422 47.9999 49.9608 47.4086 48.5057 46.4651C42.7794 42.7515 44.6436 35.8417 48.4649 33.2396C50.5094 31.848 52.7718 31.2307 55.1937 31.1458C58.0423 31.0459 60.7852 31.5374 63.4794 32.8466L62.0561 37.8973C60.9278 37.4978 59.8774 36.9791 58.7685 36.7729C57.4529 36.5278 56.073 36.391 54.745 36.4992C52.9644 36.6451 51.9217 37.8739 51.9217 39.3978C51.9217 40.3004 52.2641 41.0642 53.0169 41.5019C54.0972 42.1303 55.2436 42.6484 56.3797 43.1743C57.6091 43.7429 58.9073 44.18 60.0907 44.8291C63.2486 46.5604 64.8924 49.2385 64.6246 52.8846Z" fill="white"/>
</svg>
