<svg width="81" height="82" viewBox="0 0 81 82" fill="none" xmlns="http://www.w3.org/2000/svg">
<path d="M39.9098 0.000627576C36.5783 0.0164088 33.3984 0.299682 30.5988 0.795213C22.3531 2.25182 20.8571 5.30076 20.8571 10.9244V18.3503H40.3414V20.8256H13.544C7.88171 20.8256 2.92324 24.2288 1.37194 30.7054C-0.417649 38.1265 -0.496555 42.7583 1.37194 50.5077C2.75675 56.2766 6.0645 60.386 11.7276 60.386H18.4275V51.4838C18.4275 45.0522 23.9912 39.3796 30.5996 39.3796H50.0618C55.4795 39.3796 59.8036 34.9182 59.8036 29.4784V10.9252C59.8036 5.644 55.3486 1.67739 50.0618 0.796003C46.7131 0.238925 43.2404 -0.0143646 39.9098 0.000627576ZM29.3726 5.97304C31.3847 5.97304 33.0291 7.64349 33.0291 9.69821C33.0291 11.7442 31.3855 13.3989 29.3726 13.3989C27.3526 13.3989 25.7169 11.7442 25.7169 9.69821C25.7161 7.64349 27.3526 5.97304 29.3726 5.97304Z" fill="white"/>
<path d="M62.233 20.8255V29.4784C62.233 36.1854 56.5454 41.8311 50.0609 41.8311H30.5987C25.2678 41.8311 20.8569 46.3943 20.8569 51.7331V70.2879C20.8569 75.5675 25.4477 78.674 30.5987 80.1882C36.766 82.0007 42.6808 82.329 50.0609 80.1882C54.9657 78.7671 59.8027 75.9092 59.8027 70.2879V62.8612H40.3413V60.3851H69.546C75.2083 60.3851 77.3199 56.4359 79.2894 50.5069C81.3236 44.4035 81.236 38.5336 79.2894 30.7046C77.8896 25.0667 75.217 20.8247 69.546 20.8247L62.233 20.8255ZM51.2863 67.8118C53.3071 67.8118 54.9429 69.4665 54.9429 71.5141C54.9429 73.5672 53.3063 75.2377 51.2863 75.2377C49.2742 75.2377 47.6306 73.5672 47.6306 71.5141C47.6306 69.4665 49.2742 67.8118 51.2863 67.8118Z" fill="white"/>
</svg>
