<svg width="102" height="77" viewBox="0 0 102 77" fill="none" xmlns="http://www.w3.org/2000/svg">
<g clip-path="url(#clip0_52_300)">
<path d="M87.7744 44.2573C84.218 44.276 81.1271 45.1386 78.5389 46.4139C77.5893 44.5198 76.6397 42.832 76.4721 41.5943C76.2859 40.1503 76.0624 39.2689 76.2859 37.5437C76.5093 35.8184 77.5148 33.3617 77.4962 33.1742C77.4776 32.9867 77.2727 32.1053 75.2245 32.0865C73.1763 32.0678 71.4074 32.4803 71.2026 33.0242C70.9978 33.568 70.6068 34.8057 70.3461 36.0809C69.9923 37.9562 66.2497 44.6511 64.1084 48.1579C63.4195 46.7889 62.8237 45.5887 62.6933 44.6323C62.5071 43.1883 62.2837 42.3069 62.5071 40.5817C62.7306 38.8564 63.736 36.3997 63.7174 36.2122C63.6988 36.0247 63.494 35.1433 61.4458 35.1245C59.3976 35.1058 57.6287 35.5183 57.4239 36.0622C57.2191 36.606 56.9956 37.8812 56.5674 39.1189C56.1391 40.3566 51.1676 51.5334 49.8642 54.4214C49.1939 55.9029 48.6166 57.0843 48.207 57.8907C48.207 57.8907 48.1884 57.947 48.1325 58.0407C47.7788 58.7346 47.5739 59.1097 47.5739 59.1097C47.5739 59.1097 47.5739 59.1097 47.5739 59.1284C47.2946 59.6347 46.9967 60.1036 46.8478 60.1036C46.736 60.1036 46.5312 58.7534 46.885 56.9156C47.6298 53.0337 49.3987 46.9952 49.3801 46.7889C49.3801 46.6764 49.7152 45.6262 48.2256 45.0824C46.7733 44.5385 46.2519 45.4387 46.1216 45.4387C45.9912 45.4387 45.8981 45.7575 45.8981 45.7575C45.8981 45.7575 47.5181 38.9689 42.8072 38.9689C39.8653 38.9689 35.8061 42.2132 33.7952 45.1386C32.529 45.8325 29.8291 47.314 26.943 48.908C25.8445 49.5269 24.7087 50.1457 23.6473 50.7271C23.5728 50.652 23.4984 50.5583 23.4239 50.4833C17.7262 44.351 7.18729 40.0191 7.63417 31.7865C7.80175 28.786 8.82585 20.9097 27.874 11.3457C43.552 3.56314 56.0274 5.71974 58.1873 10.5018C61.2782 17.3279 51.5027 30.0049 35.3034 31.8427C29.1216 32.5366 25.8817 30.1362 25.0624 29.2361C24.2059 28.2984 24.0756 28.2422 23.759 28.4297C23.2377 28.711 23.5728 29.5549 23.759 30.0424C24.2432 31.3177 26.2355 33.568 29.6057 34.6744C32.5849 35.6496 39.828 36.1934 48.598 32.7804C58.4107 28.9548 66.0821 18.3218 63.8291 9.41409C61.5761 0.375124 46.6802 -2.60661 32.5849 2.43796C24.2059 5.43845 15.1194 10.1642 8.58379 16.3152C0.819276 23.6289 -0.409639 29.9862 0.0930989 32.6491C1.89923 42.1007 14.8401 48.2516 20.0164 52.8086C19.7558 52.9587 19.5137 53.0899 19.3089 53.2025C16.7207 54.4964 6.85214 59.691 4.3943 65.1857C1.60131 71.4117 4.84118 75.8749 6.98247 76.475C13.6298 78.3315 20.4633 74.9935 24.1314 69.4801C27.7996 63.9667 27.3527 56.803 25.6583 53.5213C25.6396 53.4837 25.621 53.4462 25.5838 53.4087C26.2541 53.0149 26.943 52.6024 27.6134 52.2085C28.9354 51.4209 30.2388 50.6895 31.356 50.0894C30.7229 51.8335 30.2574 53.9151 30.034 56.9156C29.7547 60.4411 31.1884 65.0169 33.069 66.8172C33.9069 67.6048 34.8938 67.6235 35.5268 67.6235C37.724 67.6235 38.7108 65.7857 39.8094 63.6104C41.1501 60.9475 42.3604 57.8532 42.3604 57.8532C42.3604 57.8532 40.8521 66.2171 44.9485 66.2171C46.4381 66.2171 47.9463 64.2667 48.6167 63.2728C48.6167 63.2916 48.6167 63.2916 48.6167 63.2916C48.6167 63.2916 48.6539 63.2353 48.7284 63.1041C48.8773 62.8603 48.9704 62.7102 48.9704 62.7102C48.9704 62.7102 48.9704 62.6915 48.9704 62.6727C49.5663 61.6226 50.9069 59.2409 52.8992 55.284C55.4688 50.1832 57.9452 43.8072 57.9452 43.8072C57.9452 43.8072 58.1687 45.3637 58.9321 47.9516C59.379 49.4706 60.31 51.1396 61.0548 52.7524C60.4589 53.5963 60.0865 54.0651 60.0865 54.0651C60.0865 54.0651 60.0865 54.0651 60.1051 54.0838C59.621 54.7214 59.0997 55.4153 58.5225 56.0904C56.4929 58.5283 54.0723 61.3225 53.7371 62.1289C53.3461 63.0853 53.4392 63.7792 54.184 64.3418C54.724 64.7543 55.6922 64.8106 56.6791 64.7543C58.5038 64.6231 59.7886 64.173 60.4217 63.8917C61.4085 63.5354 62.563 62.9915 63.6429 62.1852C65.6353 60.7037 66.8456 58.5846 66.7338 55.7904C66.678 54.2526 66.1752 52.7149 65.5608 51.2709C65.747 51.0083 65.9146 50.7458 66.1008 50.4833C69.2475 45.8513 71.6867 40.7692 71.6867 40.7692C71.6867 40.7692 71.9102 42.3257 72.6736 44.9136C73.046 46.2263 73.8094 47.6516 74.4797 49.0393C71.5192 51.4584 69.6944 54.2714 69.0427 56.1092C67.8697 59.5222 68.782 61.06 70.5137 61.4163C71.2957 61.5851 72.4129 61.21 73.2322 60.8537C74.2749 60.5161 75.5038 59.9348 76.6769 59.0722C78.6692 57.5907 80.5871 55.5278 80.4754 52.7336C80.4195 51.4584 80.0843 50.202 79.6188 48.983C82.1325 47.9328 85.3724 47.3515 89.506 47.8391C98.3691 48.8893 100.119 54.4589 99.7842 56.803C99.4491 59.1472 97.5871 60.4224 96.9726 60.8162C96.3582 61.21 96.1534 61.3413 96.2092 61.6226C96.2837 62.0351 96.5816 62.0164 97.103 61.9414C97.8291 61.8101 101.758 60.0473 101.926 55.7341C102.205 50.2207 96.9912 44.201 87.7744 44.2573ZM19.402 67.4735C16.46 70.699 12.3636 71.918 10.5947 70.8866C8.69551 69.7801 9.44031 65.0169 13.0526 61.6038C15.2497 59.5222 18.08 57.5907 19.9606 56.4092C20.3888 56.1467 21.0219 55.7716 21.7853 55.3028C21.9157 55.2278 21.9901 55.1903 21.9901 55.1903C22.1391 55.0965 22.2881 55.0027 22.437 54.909C23.759 59.7848 22.4929 64.0792 19.402 67.4735ZM40.8149 52.8086C39.7908 55.3215 37.6495 61.7538 36.3461 61.3975C35.2289 61.0975 34.54 56.2217 36.1227 51.4022C36.9233 48.983 38.6177 46.0951 39.6046 44.9699C41.2059 43.1696 42.9748 42.5695 43.4031 43.3008C43.943 44.2573 41.448 51.2334 40.8149 52.8086ZM58.4852 61.3225C58.057 61.5476 57.6473 61.6976 57.4611 61.5851C57.3308 61.5101 57.6473 61.21 57.6473 61.21C57.6473 61.21 59.8631 58.8096 60.7382 57.7219C61.241 57.0843 61.8368 56.3342 62.4699 55.4903C62.4699 55.5653 62.4699 55.6591 62.4699 55.7341C62.4699 58.6033 59.7141 60.5349 58.4852 61.3225ZM72.115 58.1908C71.7985 57.9657 71.8543 57.2156 72.9157 54.8715C73.3253 53.9526 74.2935 52.4148 75.9507 50.9333C76.1369 51.5334 76.2673 52.1148 76.2486 52.6586C76.23 56.2779 73.6605 57.6282 72.115 58.1908Z" fill="white"/>
</g>
<defs>
<clipPath id="clip0_52_300">
<rect width="102" height="77" fill="white"/>
</clipPath>
</defs>
</svg>
