<svg version="1.2" xmlns="http://www.w3.org/2000/svg" viewBox="0 0 82 82" width="82" height="82">
	<title>Typescript_logo_2020 1</title>
	<style>
		.s0 { fill: #ffffff } 
	</style>
	<path id="Ebene 1" fill-rule="evenodd" class="s0" d="m41.5 0.1c31.6 0.1 35 0.1 36 0.7 0.6 0.3 1.5 1 2.1 1.6 0.6 0.6 1.4 1.7 1.7 2.5 0.6 1.4 0.7 3.3 0.7 36.1 0 32.8-0.1 34.7-0.7 36.1-0.3 0.8-1.1 1.9-1.7 2.5-0.6 0.6-1.5 1.3-2.1 1.6-1 0.6-4.4 0.6-36.5 0.6-32.1 0-35.5 0-36.5-0.6-0.6-0.3-1.5-1-2.1-1.6-0.6-0.6-1.4-1.7-1.7-2.5-0.6-1.4-0.7-3.3-0.7-36.1 0-33.4 0-34.7 0.7-36.1 0.4-0.8 0.9-1.7 1.2-2 0.3-0.3 0.8-0.8 1.2-1.2 0.4-0.3 1.4-0.8 2.2-1.1 1.2-0.5 6.3-0.6 36.2-0.5zm18.5 38.5c-1.1 0.3-2.9 0.9-3.9 1.4-1 0.4-2.3 1.4-3 2.2-0.7 0.7-1.5 2-1.8 2.7-0.3 0.8-0.5 2.4-0.5 3.9 0 2 0.2 3 0.9 4.4 0.7 1.4 1.5 2.4 3 3.5 1.1 0.9 3.6 2.2 5.5 3 2.2 0.9 4 2 5 2.9 1.2 1.1 1.5 1.7 1.6 2.6 0 0.8-0.3 1.5-0.9 2.1-0.4 0.4-1.4 1-2.2 1.2-0.8 0.2-2.3 0.4-3.3 0.4-1 0-2.6-0.2-3.6-0.5-1-0.3-2.8-1.1-3.9-1.8l-2.1-1.3v8c1.8 0.8 3.4 1.2 4.7 1.4 1.3 0.3 4 0.5 6 0.5 2.6 0 4.3-0.2 6-0.8 1.3-0.4 3.1-1.2 4-1.9 1-0.8 2-1.9 2.6-3.2 1-1.8 1-2.3 0.9-5.1-0.1-2.7-0.2-3.3-1.2-4.9-0.6-1-1.9-2.3-3-3.1-1.1-0.7-3.3-1.9-4.8-2.5-1.5-0.7-3.4-1.7-4.3-2.2-1-0.6-1.8-1.4-2.2-2.2-0.3-0.8-0.4-1.5-0.1-2.1 0.1-0.5 0.7-1.2 1.3-1.6 0.8-0.6 1.7-0.8 3.8-0.9 2.1-0.1 3.5 0 5.4 0.6 1.5 0.4 2.7 0.9 2.8 1.1 0.1 0.2 0.4 0.4 0.6 0.4 0.2 0 0.3-1.4 0.3-3.7l-0.1-3.7c-2.8-0.8-5.4-1.1-7.5-1.1-2.4-0.1-4.6 0-6 0.3zm-41 6.9l10 0.2v29h8.4v-29h10.1v-6.9h-28.7z"/>
</svg>